<svg width="96" height="96" viewBox="0 0 96 96" fill="none" xmlns="http://www.w3.org/2000/svg">
<path d="M32 12C20.956 12 12 20.956 12 32V64C12 75.044 20.956 84 32 84H64C75.044 84 84 75.044 84 64V32C84 20.956 75.044 12 64 12H32ZM72 20C74.208 20 76 21.792 76 24C76 26.208 74.208 28 72 28C69.792 28 68 26.208 68 24C68 21.792 69.792 20 72 20ZM48 28C59.044 28 68 36.956 68 48C68 59.044 59.044 68 48 68C36.956 68 28 59.044 28 48C28 36.956 36.956 28 48 28ZM48 36C44.8174 36 41.7652 37.2643 39.5147 39.5147C37.2643 41.7652 36 44.8174 36 48C36 51.1826 37.2643 54.2348 39.5147 56.4853C41.7652 58.7357 44.8174 60 48 60C51.1826 60 54.2348 58.7357 56.4853 56.4853C58.7357 54.2348 60 51.1826 60 48C60 44.8174 58.7357 41.7652 56.4853 39.5147C54.2348 37.2643 51.1826 36 48 36Z" fill="#355070"/>
</svg>
