<svg width="96" height="96" viewBox="0 0 96 96" fill="none" xmlns="http://www.w3.org/2000/svg">
<path d="M86.328 24.744C85.408 21.304 82.696 18.592 79.256 17.672C73.016 16 48 16 48 16C48 16 22.984 16 16.744 17.672C13.304 18.592 10.592 21.304 9.672 24.744C8 30.984 8 48 8 48C8 48 8 65.016 9.672 71.256C10.592 74.696 13.304 77.408 16.744 78.328C22.984 80 48 80 48 80C48 80 73.016 80 79.256 78.328C82.7 77.408 85.408 74.696 86.328 71.256C88 65.016 88 48 88 48C88 48 88 30.984 86.328 24.744ZM40 58.392V37.608C40 36.068 41.668 35.108 43 35.876L61 46.268C62.332 47.036 62.332 48.964 61 49.732L43 60.124C41.668 60.896 40 59.932 40 58.392Z" fill="#355070"/>
</svg>
